<svg width="265" height="48" viewBox="0 0 265 48" fill="none" xmlns="http://www.w3.org/2000/svg">
<path d="M31.6275 48C28.619 46.9975 25.714 45.7709 22.9305 44.3396C13.6994 39.5961 5.81475 32.6154 0 24.118C5.81475 15.6206 13.6994 8.63992 22.9305 3.8964C25.714 2.46512 28.619 1.23855 31.6275 0.23601C24.7187 5.90954 20.3152 14.502 20.3152 24.118C20.3152 33.734 24.7187 42.3265 31.6275 48Z" fill="white"/>
<path d="M102.951 24.118C97.1361 32.6154 89.2514 39.5961 80.0203 44.3396C77.2368 45.7709 74.3318 46.9975 71.3233 48C78.2321 42.3265 82.6356 33.734 82.6356 24.118C82.6356 14.502 78.2321 5.90954 71.3233 0.23601C74.3318 1.23855 77.2368 2.46512 80.0203 3.8964C89.2514 8.63992 97.1361 15.6206 102.951 24.118Z" fill="white"/>
<path d="M76.3212 22.7335C76.3212 29.0628 74.6861 31.9638 71.1258 31.9638C67.6447 31.9638 66.036 29.0628 66.036 22.7335C66.036 16.4306 67.6711 13.556 71.205 13.556C74.7125 13.556 76.3212 16.4306 76.3212 22.7335ZM69.7281 22.7335C69.7281 28.7727 70.1764 31.4891 71.1258 31.4891C72.128 31.4891 72.6027 28.7727 72.6027 22.7335C72.6027 16.747 72.1544 14.0307 71.205 14.0307C70.2028 14.0307 69.7281 16.747 69.7281 22.7335Z" fill="white"/>
<path d="M56.5383 29.0365H64.1862V31.6209H55.8526V30.5133C55.8526 28.9837 56.4592 27.2959 58.1734 24.8169C59.8084 22.4434 60.5996 19.5425 60.5996 16.7998C60.5996 14.9801 59.6502 14.268 58.5162 14.268C57.8833 14.268 57.1976 14.479 56.5647 14.8482L56.2746 14.3735C57.1976 13.8197 58.2788 13.556 59.3601 13.556C62.3929 13.556 64.1071 15.0065 64.1071 18.1447C64.1071 20.9138 62.3665 22.9445 60.0722 24.8169C58.0151 26.4784 56.9339 27.6651 56.5383 29.0365Z" fill="white"/>
<path d="M49.0937 37.0272H48.5399L54.1835 11.2088H54.7373L49.0937 37.0272Z" fill="white"/>
<path d="M47.5539 22.7335C47.5539 29.0628 45.9188 31.9638 42.3586 31.9638C38.8774 31.9638 37.2687 29.0628 37.2687 22.7335C37.2687 16.4306 38.9038 13.556 42.4377 13.556C45.9452 13.556 47.5539 16.4306 47.5539 22.7335ZM40.9608 22.7335C40.9608 28.7727 41.4092 31.4891 42.3586 31.4891C43.3607 31.4891 43.8354 28.7727 43.8354 22.7335C43.8354 16.747 43.3871 14.0307 42.4377 14.0307C41.4355 14.0307 40.9608 16.747 40.9608 22.7335Z" fill="white"/>
<path d="M32.5494 21.916C33.9735 23.1291 35.3976 24.3686 35.3976 27.1377C35.3976 29.8276 34.1845 31.9638 30.4924 31.9638C27.9607 31.9638 26.141 30.1705 26.141 27.7179C26.141 24.9224 27.3014 23.7357 28.7518 23.1027C27.5651 22.0742 26.5102 20.8875 26.5102 18.303C26.5102 15.2438 28.2508 13.556 31.099 13.556C33.9208 13.556 35.0284 15.3493 35.0284 17.5118C35.0284 20.0963 33.6834 21.4149 32.5494 21.916ZM31.0726 14.0307C30.1496 14.0307 29.7276 15.2702 29.7804 17.2481C29.8331 19.3315 30.8616 20.4655 32.0484 21.4676C32.3912 20.8083 32.5231 19.7271 32.5231 17.4063C32.5231 15.5866 32.1802 14.0307 31.0726 14.0307ZM30.5188 31.4891C31.2045 31.4891 31.9429 30.9353 31.9429 28.5354C31.9429 25.7663 30.6243 24.6851 29.3057 23.5774V23.6038C29.2529 23.4983 28.9101 24.6059 28.9101 27.7179C28.9101 30.6452 29.7012 31.4891 30.5188 31.4891Z" fill="white"/>
<path d="M262.752 0.944036H264.1V46.5952H254.66L241.645 8.90096V46.5952H240.297V5.66424L238.678 0.944036H248.051L262.752 42.6841V0.944036Z" fill="white"/>
<path d="M213.214 47.4718C198.176 47.4718 188.062 38.0314 188.062 23.8033C188.062 9.50785 197.974 0 213.214 0C228.183 0 238.433 9.44042 238.433 23.6685C238.433 37.9639 228.386 47.4718 213.214 47.4718ZM213.214 46.3929C222.182 46.3929 228.116 37.3571 228.116 23.8708C228.116 10.1822 222.384 1.07891 213.214 1.07891C204.245 1.07891 198.379 10.1147 198.379 23.601C198.379 37.2896 204.178 46.3929 213.214 46.3929Z" fill="white"/>
<path d="M186.241 46.5952H177.07V0.944036H186.241V46.5952Z" fill="white"/>
<path d="M173.978 2.29268L173.438 3.37158C171.146 2.29268 169.055 1.68579 166.223 1.75322C163.054 1.75322 160.761 3.70874 160.761 7.08031C160.761 10.9239 162.447 13.9583 167.774 19.5551C173.843 25.9611 175.933 29.1304 175.933 34.6598C175.866 42.1447 171.415 47.2021 162.38 47.2021C159.615 47.2021 155.906 46.3929 153.411 44.9094L154.018 43.8305C156.918 45.4488 159.413 45.9209 162.447 45.9883C166.426 45.9883 168.651 44.5048 168.651 40.8635C168.651 36.6153 166.695 33.3112 161.705 28.2538C156.176 22.7244 153.411 18.4762 153.411 12.4074C153.411 5.25966 158.603 0.539455 166.088 0.539455C168.921 0.539455 171.55 1.07891 173.978 2.29268Z" fill="white"/>
<path d="M151.793 46.5952H142.622V0.944036H151.793V46.5952Z" fill="white"/>
<path d="M140.344 0.944036H141.76L133.197 46.5952H124.161L115.125 0.944036H124.565L132.657 42.4144L140.344 0.944036Z" fill="white"/>
</svg>
