<svg width="80" height="80" viewBox="0 0 80 80" fill="none" xmlns="http://www.w3.org/2000/svg">
<path d="M60.0001 70.0002C60.0001 62.9277 57.1906 56.145 52.1896 51.144C47.1886 46.143 40.4059 43.3335 33.3334 43.3335C26.261 43.3335 19.4782 46.143 14.4772 51.144C9.47626 56.145 6.66675 62.9277 6.66675 70.0002" stroke="url(#paint0_linear_208_266)" stroke-linecap="round" stroke-linejoin="round"/>
<path d="M33.3334 43.3333C42.5382 43.3333 50.0001 35.8714 50.0001 26.6667C50.0001 17.4619 42.5382 10 33.3334 10C24.1287 10 16.6667 17.4619 16.6667 26.6667C16.6667 35.8714 24.1287 43.3333 33.3334 43.3333Z" stroke="url(#paint1_linear_208_266)" stroke-linecap="round" stroke-linejoin="round"/>
<path d="M73.3333 66.6668C73.3333 55.4335 66.6667 45.0002 60 40.0002C62.1914 38.3561 63.9437 36.1971 65.1019 33.7144C66.2601 31.2317 66.7884 28.5017 66.6401 25.7662C66.4918 23.0306 65.6714 20.3738 64.2516 18.0308C62.8318 15.6879 60.8563 13.731 58.5 12.3335" stroke="url(#paint2_linear_208_266)" stroke-linecap="round" stroke-linejoin="round"/>
<defs>
<linearGradient id="paint0_linear_208_266" x1="60.0001" y1="56.6668" x2="6.66675" y2="56.6668" gradientUnits="userSpaceOnUse">
<stop stop-color="#A6B5C8"/>
<stop offset="1" stop-color="#1A1E2E"/>
</linearGradient>
<linearGradient id="paint1_linear_208_266" x1="50.0001" y1="26.6667" x2="16.6667" y2="26.6667" gradientUnits="userSpaceOnUse">
<stop stop-color="#A6B5C8"/>
<stop offset="1" stop-color="#1A1E2E"/>
</linearGradient>
<linearGradient id="paint2_linear_208_266" x1="73.3333" y1="39.5002" x2="58.5" y2="39.5002" gradientUnits="userSpaceOnUse">
<stop stop-color="#A6B5C8"/>
<stop offset="1" stop-color="#1A1E2E"/>
</linearGradient>
</defs>
</svg>
