<svg width="80" height="80" viewBox="0 0 80 80" fill="none" xmlns="http://www.w3.org/2000/svg">
<path d="M40 50C45.5228 50 50 45.5228 50 40C50 34.4772 45.5228 30 40 30C34.4772 30 30 34.4772 30 40C30 45.5228 34.4772 50 40 50Z" stroke="url(#paint0_linear_208_208)" stroke-linecap="round" stroke-linejoin="round"/>
<path d="M10 23.3333V16.6667C10 14.8986 10.7024 13.2029 11.9526 11.9526C13.2029 10.7024 14.8986 10 16.6667 10H23.3333" stroke="url(#paint1_linear_208_208)" stroke-linecap="round" stroke-linejoin="round"/>
<path d="M56.6667 10H63.3334C65.1015 10 66.7972 10.7024 68.0475 11.9526C69.2977 13.2029 70.0001 14.8986 70.0001 16.6667V23.3333" stroke="url(#paint2_linear_208_208)" stroke-linecap="round" stroke-linejoin="round"/>
<path d="M70.0001 56.6667V63.3334C70.0001 65.1015 69.2977 66.7972 68.0475 68.0475C66.7972 69.2977 65.1015 70.0001 63.3334 70.0001H56.6667" stroke="url(#paint3_linear_208_208)" stroke-linecap="round" stroke-linejoin="round"/>
<path d="M23.3333 70.0001H16.6667C14.8986 70.0001 13.2029 69.2977 11.9526 68.0475C10.7024 66.7972 10 65.1015 10 63.3334V56.6667" stroke="url(#paint4_linear_208_208)" stroke-linecap="round" stroke-linejoin="round"/>
<defs>
<linearGradient id="paint0_linear_208_208" x1="50" y1="40" x2="30" y2="40" gradientUnits="userSpaceOnUse">
<stop stop-color="#A6B5C8"/>
<stop offset="1" stop-color="#1A1E2E"/>
</linearGradient>
<linearGradient id="paint1_linear_208_208" x1="23.3333" y1="16.6667" x2="10" y2="16.6667" gradientUnits="userSpaceOnUse">
<stop stop-color="#A6B5C8"/>
<stop offset="1" stop-color="#1A1E2E"/>
</linearGradient>
<linearGradient id="paint2_linear_208_208" x1="70.0001" y1="16.6667" x2="56.6667" y2="16.6667" gradientUnits="userSpaceOnUse">
<stop stop-color="#A6B5C8"/>
<stop offset="1" stop-color="#1A1E2E"/>
</linearGradient>
<linearGradient id="paint3_linear_208_208" x1="70.0001" y1="63.3334" x2="56.6667" y2="63.3334" gradientUnits="userSpaceOnUse">
<stop stop-color="#A6B5C8"/>
<stop offset="1" stop-color="#1A1E2E"/>
</linearGradient>
<linearGradient id="paint4_linear_208_208" x1="23.3333" y1="63.3334" x2="10" y2="63.3334" gradientUnits="userSpaceOnUse">
<stop stop-color="#A6B5C8"/>
<stop offset="1" stop-color="#1A1E2E"/>
</linearGradient>
</defs>
</svg>
