<svg width="80" height="80" viewBox="0 0 80 80" fill="none" xmlns="http://www.w3.org/2000/svg">
<path d="M40.0001 16.6667C40.004 15.3334 39.7413 14.0129 39.2274 12.7827C38.7135 11.5525 37.9588 10.4374 37.0076 9.50316C36.0565 8.56889 34.9282 7.83425 33.6889 7.34244C32.4497 6.85064 31.1247 6.6116 29.7917 6.63938C28.4588 6.66716 27.1449 6.96121 25.9272 7.50423C24.7096 8.04724 23.6128 8.82826 22.7014 9.80135C21.79 10.7744 21.0824 11.92 20.6203 13.1705C20.1581 14.4211 19.9506 15.7514 20.0101 17.0833C18.0508 17.5871 16.2318 18.5302 14.6909 19.841C13.15 21.1519 11.9275 22.7962 11.1162 24.6495C10.3049 26.5027 9.92595 28.5163 10.008 30.5377C10.0901 32.5591 10.6311 34.5353 11.5901 36.3167C9.90402 37.6864 8.57817 39.4474 7.72788 41.4465C6.87759 43.4455 6.52861 45.622 6.7113 47.7866C6.89399 49.9513 7.60281 52.0385 8.7761 53.8667C9.9494 55.695 11.5516 57.2089 13.4434 58.2767C13.2098 60.0841 13.3492 61.9203 13.853 63.6717C14.3569 65.4232 15.2144 67.0528 16.3727 68.4599C17.531 69.8669 18.9655 71.0216 20.5875 71.8525C22.2095 72.6835 23.9847 73.1731 25.8033 73.2911C27.622 73.4091 29.4456 73.1531 31.1614 72.5387C32.8772 71.9244 34.4489 70.9648 35.7793 69.7192C37.1097 68.4736 38.1707 66.9686 38.8966 65.2969C39.6226 63.6252 39.9981 61.8225 40.0001 60V16.6667Z" stroke="url(#paint0_linear_208_250)" stroke-linecap="round" stroke-linejoin="round"/>
<path d="M40 16.6667C39.9961 15.3334 40.2588 14.0129 40.7727 12.7827C41.2866 11.5525 42.0413 10.4374 42.9925 9.50316C43.9436 8.56889 45.072 7.83425 46.3112 7.34244C47.5504 6.85064 48.8754 6.6116 50.2084 6.63938C51.5413 6.66716 52.8553 6.96121 54.0729 7.50423C55.2906 8.04724 56.3873 8.82826 57.2987 9.80135C58.2101 10.7744 58.9177 11.92 59.3799 13.1705C59.8421 14.4211 60.0495 15.7514 59.99 17.0833C61.9494 17.5871 63.7684 18.5302 65.3093 19.841C66.8502 21.1519 68.0726 22.7962 68.8839 24.6495C69.6952 26.5027 70.0742 28.5163 69.9921 30.5377C69.91 32.5591 69.369 34.5353 68.4101 36.3167C70.0961 37.6864 71.422 39.4474 72.2723 41.4465C73.1225 43.4455 73.4715 45.622 73.2888 47.7866C73.1062 49.9513 72.3973 52.0385 71.224 53.8667C70.0507 55.695 68.4485 57.2089 66.5567 58.2767C66.7903 60.0841 66.6509 61.9203 66.1471 63.6717C65.6433 65.4232 64.7857 67.0528 63.6274 68.4599C62.4691 69.8669 61.0347 71.0216 59.4126 71.8525C57.7906 72.6835 56.0155 73.1731 54.1968 73.2911C52.3781 73.4091 50.5546 73.1531 48.8388 72.5387C47.1229 71.9244 45.5513 70.9648 44.2208 69.7192C42.8904 68.4736 41.8295 66.9686 41.1035 65.2969C40.3775 63.6252 40.002 61.8225 40 60V16.6667Z" stroke="url(#paint1_linear_208_250)" stroke-linecap="round" stroke-linejoin="round"/>
<path d="M50 43.3333C47.2015 42.3489 44.7577 40.5567 42.9778 38.1834C41.1978 35.81 40.1615 32.9622 40 30C39.8385 32.9622 38.8022 35.81 37.0222 38.1834C35.2423 40.5567 32.7985 42.3489 30 43.3333" stroke="url(#paint2_linear_208_250)" stroke-linecap="round" stroke-linejoin="round"/>
<path d="M58.6633 21.6666C59.4701 20.2685 59.9264 18.696 59.9933 17.0833" stroke="url(#paint3_linear_208_250)" stroke-linecap="round" stroke-linejoin="round"/>
<path d="M20.01 17.0833C20.0759 18.6957 20.5311 20.2682 21.3367 21.6666" stroke="url(#paint4_linear_208_250)" stroke-linecap="round" stroke-linejoin="round"/>
<path d="M11.5901 36.32C12.1999 35.8234 12.8524 35.3816 13.5401 35" stroke="url(#paint5_linear_208_250)" stroke-linecap="round" stroke-linejoin="round"/>
<path d="M66.46 35C67.1476 35.3816 67.8002 35.8234 68.41 36.32" stroke="url(#paint6_linear_208_250)" stroke-linecap="round" stroke-linejoin="round"/>
<path d="M20 60C17.7028 60.0011 15.4442 59.4086 13.4434 58.28" stroke="url(#paint7_linear_208_250)" stroke-linecap="round" stroke-linejoin="round"/>
<path d="M66.5567 58.28C64.5558 59.4086 62.2972 60.0011 60 60" stroke="url(#paint8_linear_208_250)" stroke-linecap="round" stroke-linejoin="round"/>
<defs>
<linearGradient id="paint0_linear_208_250" x1="40.0001" y1="39.9782" x2="6.66406" y2="39.9782" gradientUnits="userSpaceOnUse">
<stop stop-color="#A6B5C8"/>
<stop offset="1" stop-color="#1A1E2E"/>
</linearGradient>
<linearGradient id="paint1_linear_208_250" x1="73.3361" y1="39.9782" x2="40" y2="39.9782" gradientUnits="userSpaceOnUse">
<stop stop-color="#A6B5C8"/>
<stop offset="1" stop-color="#1A1E2E"/>
</linearGradient>
<linearGradient id="paint2_linear_208_250" x1="50" y1="36.6667" x2="30" y2="36.6667" gradientUnits="userSpaceOnUse">
<stop stop-color="#A6B5C8"/>
<stop offset="1" stop-color="#1A1E2E"/>
</linearGradient>
<linearGradient id="paint3_linear_208_250" x1="59.9933" y1="19.3749" x2="58.6633" y2="19.3749" gradientUnits="userSpaceOnUse">
<stop stop-color="#A6B5C8"/>
<stop offset="1" stop-color="#1A1E2E"/>
</linearGradient>
<linearGradient id="paint4_linear_208_250" x1="21.3367" y1="19.3749" x2="20.01" y2="19.3749" gradientUnits="userSpaceOnUse">
<stop stop-color="#A6B5C8"/>
<stop offset="1" stop-color="#1A1E2E"/>
</linearGradient>
<linearGradient id="paint5_linear_208_250" x1="13.5401" y1="35.66" x2="11.5901" y2="35.66" gradientUnits="userSpaceOnUse">
<stop stop-color="#A6B5C8"/>
<stop offset="1" stop-color="#1A1E2E"/>
</linearGradient>
<linearGradient id="paint6_linear_208_250" x1="68.41" y1="35.66" x2="66.46" y2="35.66" gradientUnits="userSpaceOnUse">
<stop stop-color="#A6B5C8"/>
<stop offset="1" stop-color="#1A1E2E"/>
</linearGradient>
<linearGradient id="paint7_linear_208_250" x1="20" y1="59.14" x2="13.4434" y2="59.14" gradientUnits="userSpaceOnUse">
<stop stop-color="#A6B5C8"/>
<stop offset="1" stop-color="#1A1E2E"/>
</linearGradient>
<linearGradient id="paint8_linear_208_250" x1="66.5567" y1="59.14" x2="60" y2="59.14" gradientUnits="userSpaceOnUse">
<stop stop-color="#A6B5C8"/>
<stop offset="1" stop-color="#1A1E2E"/>
</linearGradient>
</defs>
</svg>
