<svg width="80" height="80" viewBox="0 0 80 80" fill="none" xmlns="http://www.w3.org/2000/svg">
<path d="M70 23.3333V16.6667C70 14.8986 69.2976 13.2029 68.0474 11.9526C66.7971 10.7024 65.1014 10 63.3333 10H16.6667C14.8986 10 13.2029 10.7024 11.9526 11.9526C10.7024 13.2029 10 14.8986 10 16.6667V23.3333" stroke="url(#paint0_linear_208_229)" stroke-linecap="round" stroke-linejoin="round"/>
<path d="M63.1466 41.087C63.3955 40.3748 63.3955 39.5992 63.1466 38.887C61.2699 34.2884 58.0659 30.3531 53.9434 27.5829C49.8209 24.8127 44.9667 23.3333 39.9999 23.3333C35.0331 23.3333 30.1789 24.8127 26.0564 27.5829C21.9339 30.3531 18.7299 34.2884 16.8532 38.887C16.6043 39.5992 16.6043 40.3748 16.8532 41.087C18.7299 45.6856 21.9339 49.6209 26.0564 52.3911C30.1789 55.1613 35.0331 56.6407 39.9999 56.6407C44.9667 56.6407 49.8209 55.1613 53.9434 52.3911C58.0659 49.6209 61.2699 45.6856 63.1466 41.087Z" stroke="url(#paint1_linear_208_229)" stroke-linecap="round" stroke-linejoin="round"/>
<path d="M70 56.6409V63.3075C70 65.0756 69.2976 66.7713 68.0474 68.0216C66.7971 69.2718 65.1014 69.9742 63.3333 69.9742H16.6667C14.8986 69.9742 13.2029 69.2718 11.9526 68.0216C10.7024 66.7713 10 65.0756 10 63.3075V56.6409" stroke="url(#paint2_linear_208_229)" stroke-linecap="round" stroke-linejoin="round"/>
<path d="M40.0001 43.3073C41.841 43.3073 43.3334 41.8149 43.3334 39.974C43.3334 38.133 41.841 36.6406 40.0001 36.6406C38.1591 36.6406 36.6667 38.133 36.6667 39.974C36.6667 41.8149 38.1591 43.3073 40.0001 43.3073Z" stroke="url(#paint3_linear_208_229)" stroke-linecap="round" stroke-linejoin="round"/>
<defs>
<linearGradient id="paint0_linear_208_229" x1="70" y1="16.6667" x2="10" y2="16.6667" gradientUnits="userSpaceOnUse">
<stop stop-color="#A6B5C8"/>
<stop offset="1" stop-color="#1A1E2E"/>
</linearGradient>
<linearGradient id="paint1_linear_208_229" x1="63.3333" y1="39.987" x2="16.6665" y2="39.987" gradientUnits="userSpaceOnUse">
<stop stop-color="#A6B5C8"/>
<stop offset="1" stop-color="#1A1E2E"/>
</linearGradient>
<linearGradient id="paint2_linear_208_229" x1="70" y1="63.3075" x2="10" y2="63.3075" gradientUnits="userSpaceOnUse">
<stop stop-color="#A6B5C8"/>
<stop offset="1" stop-color="#1A1E2E"/>
</linearGradient>
<linearGradient id="paint3_linear_208_229" x1="43.3334" y1="39.974" x2="36.6667" y2="39.974" gradientUnits="userSpaceOnUse">
<stop stop-color="#A6B5C8"/>
<stop offset="1" stop-color="#1A1E2E"/>
</linearGradient>
</defs>
</svg>
