<svg width="131" height="80" viewBox="0 0 131 80" fill="none" xmlns="http://www.w3.org/2000/svg">
<g clip-path="url(#clip0_216_21901)">
<path d="M130.151 39.8548C124.254 51.556 115.479 61.4602 104.674 68.5842C100.591 71.2776 96.2822 73.5249 91.8098 75.3095C102.12 67.1569 108.77 54.3073 108.77 39.8548C108.77 25.4023 102.12 12.5526 91.8098 4.39999C96.2822 6.18461 100.591 8.4319 104.674 11.1233C115.479 18.2494 124.254 28.1536 130.151 39.8548Z" fill="white"/>
<ellipse cx="66.082" cy="39.8" rx="38.6084" ry="39.8" fill="#0A0A0A"/>
<path d="M39.3972 75.3095C34.9247 73.5249 30.6161 71.2776 26.5333 68.5842C15.7279 61.4602 6.95279 51.556 1.05545 39.8548C6.95279 28.1536 15.7279 18.2494 26.5333 11.1233C30.6161 8.4319 34.9247 6.18461 39.3972 4.39999C29.0873 12.5526 22.4386 25.4023 22.4386 39.8548C22.4386 54.3073 29.0873 67.1569 39.3972 75.3095Z" fill="white"/>
<path d="M104.736 40.1044C104.707 50.6778 100.666 60.6621 93.3458 68.2277C86.0018 75.8204 76.3014 80 66.0352 80C55.7689 80 46.0665 75.8204 38.7225 68.2277C31.3785 60.6371 27.3347 50.6131 27.3347 40C27.3347 29.3869 31.3785 19.3629 38.7225 11.7702C46.0665 4.17963 55.7669 0 66.0352 0C70.0689 0 74.0582 0.64752 77.8979 1.92585L71.9342 20.894L71.9019 20.9963L71.8716 21.0945C71.8392 21.0841 71.8089 21.0736 71.7766 21.0632C69.9618 20.4742 68.0339 20.1567 66.0352 20.1567C55.4476 20.1567 46.8365 29.059 46.8365 40C46.8365 50.941 55.4476 59.8433 66.0352 59.8433C76.6227 59.8433 85.1247 51.0538 85.2318 40.2089C85.2338 40.1734 85.2338 40.1399 85.2318 40.1044H104.736Z" fill="url(#paint0_radial_216_21901)"/>
</g>
<defs>
<radialGradient id="paint0_radial_216_21901" cx="0" cy="0" r="1" gradientUnits="userSpaceOnUse" gradientTransform="translate(66.0352 40) rotate(90) scale(40 38.7005)">
<stop offset="0.645" stop-color="#D9D9D9"/>
<stop offset="1" stop-color="#404960"/>
</radialGradient>
<clipPath id="clip0_216_21901">
<rect width="129.6" height="80" fill="white" transform="translate(0.700012)"/>
</clipPath>
</defs>
</svg>
