<svg width="280" height="132" viewBox="0 0 280 132" fill="none" xmlns="http://www.w3.org/2000/svg">
<g clip-path="url(#clip0_230_22390)">
<path d="M191.721 31.8838C187.003 41.2448 179.983 49.1682 171.339 54.8674C168.073 57.0221 164.626 58.82 161.048 60.2476C169.296 53.7255 174.616 43.4458 174.616 31.8838C174.616 20.3218 169.296 10.0421 161.048 3.52002C164.626 4.94771 168.073 6.74555 171.339 8.89865C179.983 14.5995 187.003 22.5229 191.721 31.8838Z" fill="#2B2B2B"/>
<path d="M191.721 31.8838C187.003 41.2448 179.983 49.1682 171.339 54.8674C168.073 57.0221 164.626 58.82 161.048 60.2476C169.296 53.7255 174.616 43.4458 174.616 31.8838C174.616 20.3218 169.296 10.0421 161.048 3.52002C164.626 4.94771 168.073 6.74555 171.339 8.89865C179.983 14.5995 187.003 22.5229 191.721 31.8838Z" fill="black" fill-opacity="0.2"/>
<ellipse cx="140.466" cy="31.84" rx="30.8867" ry="31.84" fill="#2B2B2B"/>
<ellipse cx="140.466" cy="31.84" rx="30.8867" ry="31.84" fill="black" fill-opacity="0.2"/>
<path d="M119.118 60.2476C115.54 58.82 112.093 57.0221 108.827 54.8674C100.183 49.1682 93.1625 41.2448 88.4446 31.8838C93.1625 22.5229 100.183 14.5995 108.827 8.89865C112.093 6.74555 115.54 4.94771 119.118 3.52002C110.87 10.0421 105.551 20.3218 105.551 31.8838C105.551 43.4458 110.87 53.7255 119.118 60.2476Z" fill="#2B2B2B"/>
<path d="M119.118 60.2476C115.54 58.82 112.093 57.0221 108.827 54.8674C100.183 49.1682 93.1625 41.2448 88.4446 31.8838C93.1625 22.5229 100.183 14.5995 108.827 8.89865C112.093 6.74555 115.54 4.94771 119.118 3.52002C110.87 10.0421 105.551 20.3218 105.551 31.8838C105.551 43.4458 110.87 53.7255 119.118 60.2476Z" fill="black" fill-opacity="0.2"/>
<path d="M171.389 32.0835C171.366 40.5422 168.133 48.5297 162.277 54.5821C156.402 60.6563 148.641 64 140.428 64C132.215 64 124.453 60.6563 118.578 54.5821C112.703 48.5097 109.468 40.4904 109.468 32C109.468 23.5096 112.703 15.4903 118.578 9.41619C124.453 3.34371 132.214 0 140.428 0C143.655 0 146.847 0.518016 149.919 1.54068L145.148 16.7152L145.122 16.7971L145.098 16.8756C145.072 16.8673 145.047 16.8589 145.022 16.8505C143.57 16.3793 142.027 16.1253 140.428 16.1253C131.958 16.1253 125.069 23.2472 125.069 32C125.069 40.7528 131.958 47.8747 140.428 47.8747C148.898 47.8747 155.7 40.843 155.786 32.1671C155.787 32.1387 155.787 32.112 155.786 32.0835H171.389Z" fill="url(#paint0_radial_230_22390)"/>
</g>
<path d="M271.638 84.3423H272.782V123.068H264.774L253.734 91.092V123.068H252.59V88.3464L251.217 84.3423H259.168L271.638 119.75V84.3423Z" fill="#0A0A0A"/>
<path d="M226.184 123.42C213.428 123.42 204.848 115.412 204.848 103.342C204.848 91.2158 213.256 83.1504 226.184 83.1504C238.882 83.1504 247.577 91.1586 247.577 103.228C247.577 115.355 239.054 123.42 226.184 123.42ZM226.184 122.505C233.791 122.505 238.825 114.84 238.825 103.4C238.825 91.7878 233.963 84.0656 226.184 84.0656C218.576 84.0656 213.599 91.7306 213.599 103.171C213.599 114.783 218.519 122.505 226.184 122.505Z" fill="#0A0A0A"/>
<path d="M199.871 123.068H192.092V84.3423H199.871V123.068Z" fill="#0A0A0A"/>
<path d="M186.036 85.8295L185.579 86.7447C183.634 85.8295 181.861 85.3147 179.458 85.3719C176.77 85.3719 174.825 87.0307 174.825 89.8908C174.825 93.1513 176.255 95.7253 180.774 100.473C185.922 105.907 187.695 108.596 187.695 113.286C187.638 119.635 183.863 123.926 176.198 123.926C173.853 123.926 170.707 123.239 168.59 121.981L169.105 121.065C171.565 122.438 173.681 122.839 176.255 122.896C179.63 122.896 181.518 121.637 181.518 118.549C181.518 114.945 179.859 112.142 175.626 107.852C170.935 103.161 168.59 99.5578 168.59 94.4097C168.59 88.3464 172.995 84.3423 179.344 84.3423C181.746 84.3423 183.977 84.7999 186.036 85.8295Z" fill="#0A0A0A"/>
<path d="M163.785 123.068H156.006V84.3423H163.785V123.068Z" fill="#0A0A0A"/>
<path d="M150.641 84.3423H151.843L144.578 123.068H136.913L129.248 84.3423H137.256L144.12 119.521L150.641 84.3423Z" fill="#0A0A0A"/>
<path d="M116.059 104.248C116.059 117.977 112.512 124.269 104.79 124.269C97.2395 124.269 93.7502 117.977 93.7502 104.248C93.7502 90.5772 97.2967 84.3423 104.962 84.3423C112.569 84.3423 116.059 90.5772 116.059 104.248ZM101.758 104.248C101.758 117.347 102.731 123.239 104.79 123.239C106.964 123.239 107.993 117.347 107.993 104.248C107.993 91.2636 107.021 85.3719 104.962 85.3719C102.788 85.3719 101.758 91.2636 101.758 104.248Z" fill="#0A0A0A"/>
<path d="M73.1498 117.919H89.7382V123.525H71.6626V121.123C71.6626 117.805 72.9782 114.144 76.6963 108.767C80.2428 103.619 81.9588 97.327 81.9588 91.378C81.9588 87.4312 79.8996 85.8867 77.4399 85.8867C76.0671 85.8867 74.5799 86.3443 73.207 87.1451L72.5778 86.1155C74.5799 84.9143 76.9251 84.3423 79.2704 84.3423C85.8485 84.3423 89.5666 87.4884 89.5666 94.2953C89.5666 100.301 85.7913 104.706 80.8148 108.767C76.3531 112.371 74.0078 114.945 73.1498 117.919Z" fill="#0A0A0A"/>
<path d="M57.002 132H55.8008L68.0418 76H69.2431L57.002 132Z" fill="#0A0A0A"/>
<path d="M53.6625 104.248C53.6625 117.977 50.116 124.269 42.3938 124.269C34.8433 124.269 31.354 117.977 31.354 104.248C31.354 90.5772 34.9005 84.3423 42.5654 84.3423C50.1732 84.3423 53.6625 90.5772 53.6625 104.248ZM39.3622 104.248C39.3622 117.347 40.3346 123.239 42.3938 123.239C44.5675 123.239 45.5971 117.347 45.5971 104.248C45.5971 91.2636 44.6247 85.3719 42.5654 85.3719C40.3918 85.3719 39.3622 91.2636 39.3622 104.248Z" fill="#0A0A0A"/>
<path d="M21.1182 102.475C24.207 105.106 27.2959 107.795 27.2959 113.801C27.2959 119.635 24.6646 124.269 16.6565 124.269C11.1651 124.269 7.21826 120.379 7.21826 115.059C7.21826 108.996 9.73512 106.422 12.8812 105.049C10.3071 102.818 8.01908 100.244 8.01908 94.6385C8.01908 88.0032 11.7944 84.3423 17.9721 84.3423C24.0926 84.3423 26.4951 88.232 26.4951 92.9225C26.4951 98.5282 23.5778 101.388 21.1182 102.475ZM17.9149 85.3719C15.9128 85.3719 14.9976 88.0604 15.112 92.3505C15.2264 96.8694 17.4573 99.329 20.0313 101.503C20.775 100.073 21.061 97.7274 21.061 92.6937C21.061 88.7468 20.3173 85.3719 17.9149 85.3719ZM16.7137 123.239C18.2009 123.239 19.8025 122.038 19.8025 116.833C19.8025 110.826 16.9425 108.481 14.0824 106.079V106.136C13.968 105.907 13.2244 108.31 13.2244 115.059C13.2244 121.409 14.9404 123.239 16.7137 123.239Z" fill="#0A0A0A"/>
<defs>
<radialGradient id="paint0_radial_230_22390" cx="0" cy="0" r="1" gradientUnits="userSpaceOnUse" gradientTransform="translate(140.428 32) rotate(90) scale(32 30.9604)">
<stop offset="0.645" stop-color="#D9D9D9"/>
<stop offset="1" stop-color="#404960"/>
</radialGradient>
<clipPath id="clip0_230_22390">
<rect width="103.68" height="64" fill="white" transform="translate(88.1602)"/>
</clipPath>
</defs>
</svg>
