<svg width="309" height="47" viewBox="0 0 309 47" fill="none" xmlns="http://www.w3.org/2000/svg">
<path d="M307.518 7H308.478V39.496H301.758L292.494 12.664V39.496H291.534V10.36L290.382 7H297.054L307.518 36.712V7Z" fill="#0A0A0A"/>
<path d="M269.375 39.792C258.671 39.792 251.471 33.072 251.471 22.944C251.471 12.768 258.527 6 269.375 6C280.031 6 287.327 12.72 287.327 22.848C287.327 33.024 280.175 39.792 269.375 39.792ZM269.375 39.024C275.759 39.024 279.983 32.592 279.983 22.992C279.983 13.248 275.903 6.768 269.375 6.768C262.991 6.768 258.815 13.2 258.815 22.8C258.815 32.544 262.943 39.024 269.375 39.024Z" fill="#0A0A0A"/>
<path d="M247.295 39.496H240.767V7H247.295V39.496Z" fill="#0A0A0A"/>
<path d="M235.686 8.248L235.302 9.016C233.67 8.248 232.182 7.816 230.166 7.864C227.91 7.864 226.278 9.256 226.278 11.656C226.278 14.392 227.478 16.552 231.27 20.536C235.59 25.096 237.078 27.352 237.078 31.288C237.03 36.616 233.862 40.216 227.43 40.216C225.462 40.216 222.822 39.64 221.046 38.584L221.478 37.816C223.542 38.968 225.318 39.304 227.478 39.352C230.31 39.352 231.894 38.296 231.894 35.704C231.894 32.68 230.502 30.328 226.95 26.728C223.014 22.792 221.046 19.768 221.046 15.448C221.046 10.36 224.742 7 230.07 7C232.086 7 233.958 7.384 235.686 8.248Z" fill="#0A0A0A"/>
<path d="M217.014 39.496H210.486V7H217.014V39.496Z" fill="#0A0A0A"/>
<path d="M205.985 7H206.993L200.897 39.496H194.465L188.033 7H194.753L200.513 36.52L205.985 7Z" fill="#0A0A0A"/>
<path d="M176.965 23.704C176.965 35.224 173.989 40.504 167.509 40.504C161.173 40.504 158.245 35.224 158.245 23.704C158.245 12.232 161.221 7 167.653 7C174.037 7 176.965 12.232 176.965 23.704ZM164.965 23.704C164.965 34.696 165.781 39.64 167.509 39.64C169.333 39.64 170.197 34.696 170.197 23.704C170.197 12.808 169.381 7.864 167.653 7.864C165.829 7.864 164.965 12.808 164.965 23.704Z" fill="#0A0A0A"/>
<path d="M140.958 35.176H154.878V39.88H139.71V37.864C139.71 35.08 140.814 32.008 143.934 27.496C146.91 23.176 148.35 17.896 148.35 12.904C148.35 9.592 146.622 8.296 144.558 8.296C143.406 8.296 142.158 8.68 141.006 9.352L140.478 8.488C142.158 7.48 144.126 7 146.094 7C151.614 7 154.734 9.64 154.734 15.352C154.734 20.392 151.566 24.088 147.39 27.496C143.646 30.52 141.678 32.68 140.958 35.176Z" fill="#0A0A0A"/>
<path d="M127.408 46.992H126.4L136.672 0H137.68L127.408 46.992Z" fill="#0A0A0A"/>
<path d="M124.605 23.704C124.605 35.224 121.629 40.504 115.149 40.504C108.813 40.504 105.885 35.224 105.885 23.704C105.885 12.232 108.861 7 115.293 7C121.677 7 124.605 12.232 124.605 23.704ZM112.605 23.704C112.605 34.696 113.421 39.64 115.149 39.64C116.973 39.64 117.837 34.696 117.837 23.704C117.837 12.808 117.021 7.864 115.293 7.864C113.469 7.864 112.605 12.808 112.605 23.704Z" fill="#0A0A0A"/>
<path d="M97.2961 22.216C99.8881 24.424 102.48 26.68 102.48 31.72C102.48 36.616 100.272 40.504 93.5521 40.504C88.9441 40.504 85.6321 37.24 85.6321 32.776C85.6321 27.688 87.7441 25.528 90.3841 24.376C88.2241 22.504 86.3041 20.344 86.3041 15.64C86.3041 10.072 89.4721 7 94.6561 7C99.7921 7 101.808 10.264 101.808 14.2C101.808 18.904 99.3601 21.304 97.2961 22.216ZM94.6081 7.864C92.9281 7.864 92.1601 10.12 92.2561 13.72C92.3521 17.512 94.2241 19.576 96.3841 21.4C97.0081 20.2 97.2481 18.232 97.2481 14.008C97.2481 10.696 96.6241 7.864 94.6081 7.864ZM93.6001 39.64C94.8481 39.64 96.1921 38.632 96.1921 34.264C96.1921 29.224 93.7921 27.256 91.3921 25.24V25.288C91.2961 25.096 90.6721 27.112 90.6721 32.776C90.6721 38.104 92.1121 39.64 93.6001 39.64Z" fill="#0A0A0A"/>
<g clip-path="url(#clip0_230_22753)">
<path d="M71.1983 23.9201C67.9548 30.3558 63.1285 35.8031 57.1855 39.7213C54.9399 41.2027 52.5702 42.4387 50.1104 43.4203C55.7808 38.9363 59.4387 31.869 59.4387 23.9201C59.4387 15.9713 55.7808 8.90395 50.1104 4.42C52.5702 5.40154 54.9399 6.63755 57.1855 8.11781C63.1285 12.0371 67.9548 17.4845 71.1983 23.9201Z" fill="#0A0A0A"/>
<ellipse cx="35.9601" cy="23.89" rx="21.2346" ry="21.89" fill="#0A0A0A"/>
<path d="M21.2834 43.4203C18.8235 42.4387 16.4538 41.2027 14.2083 39.7213C8.26526 35.8031 3.43897 30.3558 0.195435 23.9201C3.43897 17.4845 8.26526 12.0371 14.2083 8.11781C16.4538 6.63755 18.8235 5.40154 21.2834 4.42C15.613 8.90395 11.9561 15.9713 11.9561 23.9201C11.9561 31.869 15.613 38.9363 21.2834 43.4203Z" fill="#0A0A0A"/>
<path d="M56.8333 24.055C56.8179 29.6281 54.616 34.8907 50.6283 38.8783C46.6274 42.8803 41.3428 45.0833 35.75 45.0833C30.1571 45.0833 24.8714 42.8803 20.8705 38.8783C16.8696 34.8775 14.6666 29.594 14.6666 24C14.6666 18.406 16.8696 13.1225 20.8705 9.12056C24.8714 5.11968 30.156 2.91667 35.75 2.91667C37.9475 2.91667 40.1208 3.25796 42.2126 3.93175L38.9636 13.9295L38.946 13.9835L38.9295 14.0352C38.9119 14.0297 38.8954 14.0242 38.8778 14.0187C37.8891 13.7083 36.8388 13.5409 35.75 13.5409C29.982 13.5409 25.2909 18.2332 25.2909 24C25.2909 29.7668 29.982 34.4591 35.75 34.4591C41.5179 34.4591 46.1496 29.8263 46.2079 24.1101C46.209 24.0914 46.209 24.0738 46.2079 24.055H56.8333Z" fill="url(#paint0_radial_230_22753)"/>
</g>
<defs>
<radialGradient id="paint0_radial_230_22753" cx="0" cy="0" r="1" gradientUnits="userSpaceOnUse" gradientTransform="translate(35.75 24) rotate(90) scale(21.0833 21.0833)">
<stop offset="0.645" stop-color="#D9D9D9"/>
<stop offset="1" stop-color="#404960"/>
</radialGradient>
<clipPath id="clip0_230_22753">
<rect width="71.28" height="44" fill="white" transform="translate(0 2)"/>
</clipPath>
</defs>
</svg>
