<svg width="280" height="132" viewBox="0 0 280 132" fill="none" xmlns="http://www.w3.org/2000/svg">
<g clip-path="url(#clip0_207_1685)">
<path d="M191.721 31.8838C187.003 41.2448 179.983 49.1682 171.339 54.8674C168.073 57.0221 164.626 58.82 161.048 60.2476C169.296 53.7255 174.616 43.4458 174.616 31.8838C174.616 20.3218 169.296 10.0421 161.048 3.52002C164.626 4.94771 168.073 6.74555 171.339 8.89865C179.983 14.5995 187.003 22.5229 191.721 31.8838Z" fill="white"/>
<ellipse cx="140.466" cy="31.84" rx="30.8867" ry="31.84" fill="#0A0A0A"/>
<path d="M119.118 60.2476C115.54 58.82 112.093 57.0221 108.827 54.8674C100.182 49.1682 93.1622 41.2448 88.4444 31.8838C93.1622 22.5229 100.182 14.5995 108.827 8.89865C112.093 6.74555 115.54 4.94771 119.118 3.52002C110.87 10.0421 105.551 20.3218 105.551 31.8838C105.551 43.4458 110.87 53.7255 119.118 60.2476Z" fill="white"/>
<path d="M171.389 32.0835C171.366 40.5422 168.132 48.5297 162.277 54.5821C156.401 60.6563 148.641 64 140.428 64C132.215 64 124.453 60.6563 118.578 54.5821C112.703 48.5097 109.468 40.4904 109.468 32C109.468 23.5096 112.703 15.4903 118.578 9.41619C124.453 3.34371 132.214 0 140.428 0C143.655 0 146.847 0.518016 149.918 1.54068L145.147 16.7152L145.122 16.7971L145.097 16.8756C145.071 16.8673 145.047 16.8589 145.021 16.8505C143.569 16.3793 142.027 16.1253 140.428 16.1253C131.958 16.1253 125.069 23.2472 125.069 32C125.069 40.7528 131.958 47.8747 140.428 47.8747C148.898 47.8747 155.7 40.843 155.785 32.1671C155.787 32.1387 155.787 32.112 155.785 32.0835H171.389Z" fill="url(#paint0_radial_207_1685)"/>
</g>
<path d="M271.638 84.3423H272.782V123.068H264.774L253.734 91.092V123.068H252.59V88.3464L251.217 84.3423H259.168L271.638 119.75V84.3423Z" fill="white"/>
<path d="M226.183 123.42C213.428 123.42 204.847 115.412 204.847 103.342C204.847 91.2158 213.256 83.1504 226.183 83.1504C238.882 83.1504 247.577 91.1586 247.577 103.228C247.577 115.355 239.054 123.42 226.183 123.42ZM226.183 122.505C233.791 122.505 238.825 114.84 238.825 103.4C238.825 91.7878 233.963 84.0656 226.183 84.0656C218.576 84.0656 213.599 91.7306 213.599 103.171C213.599 114.783 218.519 122.505 226.183 122.505Z" fill="white"/>
<path d="M199.871 123.068H192.092V84.3423H199.871V123.068Z" fill="white"/>
<path d="M186.036 85.8295L185.579 86.7447C183.634 85.8295 181.861 85.3147 179.458 85.3719C176.77 85.3719 174.825 87.0307 174.825 89.8908C174.825 93.1513 176.255 95.7253 180.774 100.473C185.922 105.907 187.695 108.596 187.695 113.286C187.638 119.635 183.863 123.926 176.198 123.926C173.852 123.926 170.706 123.239 168.59 121.981L169.105 121.065C171.564 122.438 173.681 122.839 176.255 122.896C179.63 122.896 181.517 121.637 181.517 118.549C181.517 114.945 179.859 112.142 175.626 107.852C170.935 103.161 168.59 99.5578 168.59 94.4097C168.59 88.3464 172.994 84.3423 179.344 84.3423C181.746 84.3423 183.977 84.7999 186.036 85.8295Z" fill="white"/>
<path d="M163.785 123.068H156.006V84.3423H163.785V123.068Z" fill="white"/>
<path d="M150.641 84.3423H151.842L144.578 123.068H136.913L129.248 84.3423H137.256L144.12 119.521L150.641 84.3423Z" fill="white"/>
<path d="M116.059 104.248C116.059 117.977 112.512 124.269 104.79 124.269C97.2394 124.269 93.7502 117.977 93.7502 104.248C93.7502 90.5772 97.2966 84.3423 104.962 84.3423C112.569 84.3423 116.059 90.5772 116.059 104.248ZM101.758 104.248C101.758 117.347 102.731 123.239 104.79 123.239C106.964 123.239 107.993 117.347 107.993 104.248C107.993 91.2636 107.021 85.3719 104.962 85.3719C102.788 85.3719 101.758 91.2636 101.758 104.248Z" fill="white"/>
<path d="M73.1496 117.919H89.738V123.525H71.6624V121.123C71.6624 117.805 72.978 114.144 76.6961 108.767C80.2426 103.619 81.9586 97.327 81.9586 91.378C81.9586 87.4312 79.8994 85.8867 77.4397 85.8867C76.0669 85.8867 74.5797 86.3443 73.2068 87.1451L72.5776 86.1155C74.5797 84.9143 76.9249 84.3423 79.2702 84.3423C85.8483 84.3423 89.5664 87.4884 89.5664 94.2953C89.5664 100.301 85.7911 104.706 80.8146 108.767C76.3529 112.371 74.0077 114.945 73.1496 117.919Z" fill="white"/>
<path d="M57.0019 132H55.8007L68.0418 76H69.243L57.0019 132Z" fill="white"/>
<path d="M53.6624 104.248C53.6624 117.977 50.1159 124.269 42.3937 124.269C34.8432 124.269 31.3539 117.977 31.3539 104.248C31.3539 90.5772 34.9004 84.3423 42.5653 84.3423C50.1731 84.3423 53.6624 90.5772 53.6624 104.248ZM39.3621 104.248C39.3621 117.347 40.3345 123.239 42.3937 123.239C44.5674 123.239 45.597 117.347 45.597 104.248C45.597 91.2636 44.6246 85.3719 42.5653 85.3719C40.3917 85.3719 39.3621 91.2636 39.3621 104.248Z" fill="white"/>
<path d="M21.118 102.475C24.2069 105.106 27.2957 107.795 27.2957 113.801C27.2957 119.635 24.6645 124.269 16.6563 124.269C11.165 124.269 7.21811 120.379 7.21811 115.059C7.21811 108.996 9.73496 106.422 12.881 105.049C10.307 102.818 8.01893 100.244 8.01893 94.6385C8.01893 88.0032 11.7942 84.3423 17.9719 84.3423C24.0925 84.3423 26.4949 88.232 26.4949 92.9225C26.4949 98.5282 23.5777 101.388 21.118 102.475ZM17.9147 85.3719C15.9127 85.3719 14.9975 88.0604 15.1119 92.3505C15.2263 96.8694 17.4571 99.329 20.0312 101.503C20.7748 100.073 21.0608 97.7274 21.0608 92.6937C21.0608 88.7468 20.3172 85.3719 17.9147 85.3719ZM16.7135 123.239C18.2007 123.239 19.8024 122.038 19.8024 116.833C19.8024 110.826 16.9423 108.481 14.0823 106.079V106.136C13.9679 105.907 13.2242 108.31 13.2242 115.059C13.2242 121.409 14.9403 123.239 16.7135 123.239Z" fill="white"/>
<defs>
<radialGradient id="paint0_radial_207_1685" cx="0" cy="0" r="1" gradientUnits="userSpaceOnUse" gradientTransform="translate(140.428 32) rotate(90) scale(32 30.9604)">
<stop offset="0.645" stop-color="#D9D9D9"/>
<stop offset="1" stop-color="#404960"/>
</radialGradient>
<clipPath id="clip0_207_1685">
<rect width="103.68" height="64" fill="white" transform="translate(88.16)"/>
</clipPath>
</defs>
</svg>
